<?xml version="1.0" encoding="utf-8"?>
<!-- Generator: Adobe Illustrator 22.0.0, SVG Export Plug-In . SVG Version: 6.00 Build 0)  -->
<svg version="1.1" id="Capa_1" xmlns="http://www.w3.org/2000/svg" xmlns:xlink="http://www.w3.org/1999/xlink" x="0px" y="0px"
	 viewBox="0 0 464 638" style="enable-background:new 0 0 464 638;" xml:space="preserve">
<style type="text/css">
	.st0{fill:#ed1847;}
	.st1{fill:#FFFFFF;}
	.st2{fill:#2a3e83;}
</style>
<polygon class="st0" points="464,289.6 464,464 289.6,464 "/>
<polygon class="st1" points="232,232 232,174 290,174 "/>
<polygon class="st0" points="116,290 116,232 174,232 "/>
<polygon class="st0" points="58,290 58,232 116,232 "/>
<polygon class="st0" points="174,232 174,174 232,174 "/>
<polygon class="st1" points="348,174 348,116 406,116 "/>
<polygon class="st1" points="406,174 406,116 464,116 "/>
<polygon class="st0" points="58,348 58,290 116,290 "/>
<polygon class="st2" points="58,580 58,522 116,522 "/>
<polygon class="st2" points="58,638 58,580 116,580 "/>
<polygon class="st2" points="174,580 174,464 290,464 "/>
<polygon class="st1" points="290,174 290,0 464,0 "/>
<polygon class="st0" points="116,232 116,116 232,116 "/>
<polygon class="st1" points="0,464 0,348 116,348 "/>
<polygon class="st0" points="290,406 290,464 232,464 "/>
<polygon class="st0" points="348,348 348,406 290,406 "/>
<polygon class="st0" points="232,348 232,406 174,406 "/>
<polygon class="st0" points="406,290 406,348 348,348 "/>
<polygon class="st0" points="464,232 464,290 406,290 "/>
<polygon class="st2" points="406,232 406,290 348,290 "/>
<polygon class="st2" points="464,174 464,232 406,232 "/>
<polygon class="st0" points="464,116 464,174 406,174 "/>
<polygon class="st2" points="406,116 406,174 348,174 "/>
<polygon class="st0" points="348,116 348,174 290,174 "/>
<polygon class="st0" points="290,174 290,232 232,232 "/>
<polygon class="st0" points="232,232 232,290 174,290 "/>
<polygon class="st2" points="232,174 232,232 174,232 "/>
<polygon class="st2" points="58,290 58,348 0,348 "/>
<polygon class="st2" points="174,232 174,290 116,290 "/>
<polygon class="st2" points="116,290 116,348 58,348 "/>
<polygon class="st0" points="116,348 116,406 58,406 "/>
<polygon class="st0" points="116,406 116,464 58,464 "/>
<polygon class="st0" points="174,290 174,348 116,348 "/>
<polygon class="st2" points="348,174 348,232 290,232 "/>
<polygon class="st0" points="406,174 406,232 348,232 "/>
<polygon class="st0" points="348,232 348,290 290,290 "/>
<polygon class="st2" points="290,232 290,290 232,290 "/>
<polygon class="st2" points="232,290 232,348 174,348 "/>
<polygon class="st0" points="58,406 58,464 0,464 "/>
<polygon class="st2" points="174,348 174,406 116,406 "/>
<polygon class="st2" points="348,290 348,348 290,348 "/>
<polygon class="st2" points="290,348 290,406 232,406 "/>
<polygon class="st0" points="232,406 232,464 174,464 "/>
<polygon class="st0" points="174,406 174,464 116,464 "/>
<polygon class="st0" points="116,464 116,522 58,522 "/>
<polygon class="st0" points="116,522 116,580 58,580 "/>
<polygon class="st0" points="58,580 58,638 0,638 "/>
<polygon class="st0" points="174,522 174,580 116,580 "/>
<polygon class="st0" points="174,464 174,522 116,522 "/>
<polygon class="st2" points="348,405.9 348,348 406,348 "/>
<polygon class="st2" points="406,347.9 406,289.9 464,289.9 "/>
</svg>
