<svg xmlns="http://www.w3.org/2000/svg" xmlns:xlink="http://www.w3.org/1999/xlink" viewBox="0 0 286 302.61"><defs><style>.cls-1{fill:#b5b5b5;}.cls-1,.cls-2,.cls-3,.cls-4,.cls-5,.cls-6,.cls-7{fill-rule:evenodd;}.cls-2{fill:#006665;}.cls-3{fill:url(#linear-gradient);}.cls-4{fill:url(#linear-gradient-2);}.cls-5{fill:#ffcb00;}.cls-6{fill:url(#linear-gradient-3);}.cls-7{fill:url(#linear-gradient-4);}.cls-8,.cls-9{isolation:isolate;}

.season{font-size:34px;fill:#fff;font-family:Arial-BoldMT, Arial;font-weight:700;letter-spacing:-0.03em;}.cls-10{fill:#026765;}</style><linearGradient id="linear-gradient" x1="186.1" y1="125.04" x2="139.26" y2="160.69" gradientUnits="userSpaceOnUse"><stop offset="0" stop-color="#fff"/><stop offset="1" stop-color="#e7e7e7"/></linearGradient><linearGradient id="linear-gradient-2" x1="133.47" y1="161.18" x2="133.7" y2="160.48" gradientTransform="matrix(131.41, 0, 0, -279.84, -17462.73, 45202.79)" gradientUnits="userSpaceOnUse"><stop offset="0" stop-color="#f2f2f2"/><stop offset="1" stop-color="#f3f3f3"/></linearGradient><linearGradient id="linear-gradient-3" x1="135.44" y1="162.94" x2="134.24" y2="162.83" gradientTransform="matrix(251.22, 0, 0, -61.76, -33511.58, 10248.7)" gradientUnits="userSpaceOnUse"><stop offset="0" stop-color="#00c2c2"/><stop offset="1" stop-color="#006665"/></linearGradient><linearGradient id="linear-gradient-4" x1="132.65" y1="162.86" x2="133.97" y2="162.8" xlink:href="#linear-gradient-3"/></defs><g id="Layer_2" data-name="Layer 2"><g id="Layer_1-2" data-name="Layer 1"><g id="Artboard"><g id="White-leader-badge"><path id="Fill-161" class="cls-1" d="M0,211.17V22.93a2,2,0,0,1,1.71-2L142.71,0a1.88,1.88,0,0,1,.58,0L284.29,21a2,2,0,0,1,1.71,2V211.17a2,2,0,0,1-.93,1.69l-141,89.44a2,2,0,0,1-2.14,0L.93,212.86A2,2,0,0,1,0,211.17Z"/><path id="Fill-162" class="cls-2" d="M280.55,28.25a5.41,5.41,0,0,0-1.16-2.32L144.93,5.77a13.31,13.31,0,0,0-1.93,0h-1.93L6.35,25.93a5.49,5.49,0,0,0-1.15,2.3v179a5.23,5.23,0,0,0,1.16,2.3L143,297.19l136.39-87.72a5.3,5.3,0,0,0,1.15-2.28Z"/><g id="right"><polygon class="cls-3" points="143 11.56 143 291.4 273.83 204.56 273.83 30.86 143 11.56"/></g><polygon id="left" class="cls-4" points="11.6 204.55 143 291.4 143 11.56 11.91 30.86 11.6 204.55"/><polygon id="Fill-18-Copy-4" class="cls-5" points="254.43 122.67 257.59 129.4 264.67 130.48 259.55 135.72 260.76 143.13 254.43 139.63 248.1 143.13 249.31 135.72 244.19 130.48 251.26 129.4 254.43 122.67"/><polygon id="Fill-18-Copy-4-2" data-name="Fill-18-Copy-4" class="cls-5" points="31.57 122.67 34.74 129.4 41.81 130.48 36.69 135.72 37.9 143.13 31.57 139.63 25.24 143.13 26.45 135.72 21.33 130.48 28.41 129.4 31.57 122.67"/><g id="Sash-and-text"><polygon id="Rectangle" class="cls-6" points="17.39 164.02 268.61 164.02 268.61 201.45 229.36 225.78 56.64 225.78 17.39 201.45 17.39 164.02"/></g><polygon id="Rectangle-2" data-name="Rectangle" class="cls-7" points="17.39 164.02 268.61 164.02 56.64 225.78 17.39 201.45 17.39 164.02"/><g id="year" class="cls-8">

<text class="season" text-anchor="middle" transform="translate(143 205)">Spring 2024</text></g></g><g id="logo"><path class="cls-10" d="M233.8,125.52v-6.79h-2.73s0,2-3.4,4.76c-2.63,2.13-7.45,2-7.45,2v4H223l-.05,16.26H233.8V129.57h2.74v-4Z"/><path class="cls-10" d="M206.7,125.52c-7.09,0-12.21,4-12.21,10.18,0,6.79,5.07,10.18,12.21,10.18s12.21-3.39,12.21-10.18c0-6.13-5.12-10.18-12.21-10.18M208,141.78s0,.66-1.37.66-1.37-.66-1.37-.66V129.57s0-.66,1.37-.66,1.37.66,1.37.66Z"/><path class="cls-10" d="M179.55,125.52s-14.9-2-14.9,10.18c0,10.54,12.21,10.18,12.21,10.18h14.9v-27.1H179.55Zm0,16.26h-1.37c-.66,0-2.74-2-2.74-6.79,0-5.42,1.37-5.42,1.37-5.42h2.74Z"/><path class="cls-10" d="M65.67,124.86c0-.66,1.37-.66,1.37-.66h2.73v-2.73s-4-2.74-7.44-2.74c-10.18,0-10.18,4.61-10.18,6.79s1.16,3.65,2.48,6.48c1.67,3.6,3.44,6.18,2.28,7.75a3.37,3.37,0,0,1-2,.66H52.15v4.05a10.63,10.63,0,0,0,2,.66,37.39,37.39,0,0,0,7.45.66c4.05,0,9.47-1.37,9.47-6.79,0-3.39-5.27-11.09-5.42-13.57Z"/><rect class="cls-10" x="73.83" y="118.73" width="12.21" height="27.1"/><path class="cls-10" d="M111.11,127.55a17.75,17.75,0,0,0-8.16-2c-6.07,0-9.42,1.21-10.63,1.87-.26.16-.41.86-.41,1.52a5.89,5.89,0,0,0,.2,1.37s2-.66,8.16-.66c0,0,.66,0,.66,1.37s-.66,1.37-.66,1.37h-2c-2,0-4.66.2-6,.86-2.18,1.16-3.55,2.53-3.55,5.87a7.85,7.85,0,0,0,4,6.79h21.68V131c0-.05,0-1.42-3.34-3.44m-10.18,15.6H99.56c-.66,0-1.37-1.37-1.37-4.06,0-4.05,1.37-4.05,1.37-4.05h1.37Z"/><path class="cls-10" d="M129.4,130.08c0-.51,1-.51,1-.51h1.67v-2.73a24,24,0,0,0-6.79-1.37c-7.65,0-8.15,3.14-8.15,4.76s1.06,3.29,2,5.42c1.27,2.68,2.94,4.91,2,6.08a3,3,0,0,1-1.87.66h-2.18v2.73a19.1,19.1,0,0,0,5.42.66h2.18c2.53,0,8.66-1,8.66-5.06,0-2.54-4-8.31-4.05-10.19v-.45Z"/><path class="cls-10" d="M155.13,124.86a16.49,16.49,0,0,0-6.79,1.37v-7.45H136.13v27.1h12.21V129.62s0-.66,1.37-.66,1.37.66,1.37.66v16.26h10.84v-17s0-4-6.79-4"/></g><g id="top-performer"><path d="M102.07,38.77v-6h23.7v6h-8.4v22.9h-6.84V38.77Z"/><path d="M135.87,62.07a10.6,10.6,0,0,1-5.42-1.33A9,9,0,0,1,126.88,57a11.65,11.65,0,0,1-1.27-5.57,12.06,12.06,0,0,1,1.29-5.69A9.41,9.41,0,0,1,130.51,42a11.42,11.42,0,0,1,10.83,0,9.31,9.31,0,0,1,3.53,3.82,12.52,12.52,0,0,1,1.24,5.67,11.81,11.81,0,0,1-1.23,5.49,9.14,9.14,0,0,1-3.53,3.76A10.47,10.47,0,0,1,135.87,62.07Zm0-5a2.78,2.78,0,0,0,2.18-.87,5,5,0,0,0,1.1-2.22,12,12,0,0,0,.32-2.75,12.14,12.14,0,0,0-.3-2.7,4.68,4.68,0,0,0-1.08-2.17,3.31,3.31,0,0,0-4.41,0,4.72,4.72,0,0,0-1.12,2.14,11.26,11.26,0,0,0-.33,2.75,11.86,11.86,0,0,0,.31,2.71,4.87,4.87,0,0,0,1.1,2.24A2.79,2.79,0,0,0,135.89,57.07Z"/><path d="M150.73,68.11V41h6.82l0,2.68a6.25,6.25,0,0,1,1.23-1.34,7.57,7.57,0,0,1,1.53-1,8.83,8.83,0,0,1,1.71-.58,8.21,8.21,0,0,1,1.77-.2,7.22,7.22,0,0,1,4,1.14,7.65,7.65,0,0,1,2.78,3.5,15.19,15.19,0,0,1,1,6,14.4,14.4,0,0,1-1.16,6.25,7.86,7.86,0,0,1-3.09,3.5,8.4,8.4,0,0,1-4.25,1.11,6.32,6.32,0,0,1-1.62-.21,6,6,0,0,1-1.52-.63,6.83,6.83,0,0,1-1.34-1,6.48,6.48,0,0,1-1.1-1.37v9.26Zm10.66-11a3.42,3.42,0,0,0,2.74-1.4,7.11,7.11,0,0,0,1.14-4.5A7.17,7.17,0,0,0,164.16,47a3.34,3.34,0,0,0-2.77-1.52,3.12,3.12,0,0,0-2.92,1.69,8.32,8.32,0,0,0-.94,4.11,9.52,9.52,0,0,0,.41,2.84,5,5,0,0,0,1.26,2.21A2.93,2.93,0,0,0,161.39,57.15Z"/><path d="M41.56,100.67V71.75H52.62a14.07,14.07,0,0,1,5.7,1.12,9.33,9.33,0,0,1,4,3.27,10.12,10.12,0,0,1,.2,10.16A8.19,8.19,0,0,1,59,89.44a12.62,12.62,0,0,1-5.45,1.09H48.4v10.14Zm6.78-15.3h5a3.92,3.92,0,0,0,3-1.29,4.35,4.35,0,0,0,1.19-3,3.88,3.88,0,0,0-1.27-3,4.27,4.27,0,0,0-3-1.17h-4.9Z"/><path d="M73.16,91.89a5.35,5.35,0,0,0,.44,2.39,3.29,3.29,0,0,0,1.3,1.47,3.69,3.69,0,0,0,2,.5,4.67,4.67,0,0,0,2.27-.53,3.16,3.16,0,0,0,1.45-1.85h6.08a7.24,7.24,0,0,1-1.79,3.87,9.52,9.52,0,0,1-3.53,2.47,11,11,0,0,1-4.3.86,11.38,11.38,0,0,1-5.55-1.3,9.23,9.23,0,0,1-3.72-3.66,11.05,11.05,0,0,1-1.33-5.54,12.41,12.41,0,0,1,1.22-5.51,9.82,9.82,0,0,1,3.52-4,10,10,0,0,1,5.54-1.49A10.22,10.22,0,0,1,82.2,81a8.63,8.63,0,0,1,3.31,3.76,12.88,12.88,0,0,1,1.11,5.47v1.7Zm0-3.92H80.3a4.3,4.3,0,0,0-.4-1.87,3.26,3.26,0,0,0-1.2-1.35,3.68,3.68,0,0,0-2-.5,3.34,3.34,0,0,0-1.88.53,4,4,0,0,0-1.26,1.38A3.49,3.49,0,0,0,73.14,88Z"/><path d="M91.42,100.67V80H98v5.3a9.79,9.79,0,0,1,1.39-2.91,6.65,6.65,0,0,1,2.25-2,6.21,6.21,0,0,1,3.1-.75h.39a.52.52,0,0,1,.21.05v6.46l-.25-.06-.31,0a11.21,11.21,0,0,0-3.23.06,4.81,4.81,0,0,0-2,.84,3.08,3.08,0,0,0-1,1.38,5,5,0,0,0-.29,1.74v10.62Z"/><path d="M123.08,80v4.66H119v16H112.2v-16h-3.58V80h3.58V77.13a5,5,0,0,1,1.58-4,6.28,6.28,0,0,1,4.34-1.42h5.12l0,4.46h-2.56a1.78,1.78,0,0,0-1.44.49,2.7,2.7,0,0,0-.4,1.69V80Z"/><path d="M136.28,101.07a10.6,10.6,0,0,1-5.42-1.33A9,9,0,0,1,127.29,96,11.65,11.65,0,0,1,126,90.45a12.06,12.06,0,0,1,1.29-5.69A9.41,9.41,0,0,1,130.92,81a11.42,11.42,0,0,1,10.83,0,9.31,9.31,0,0,1,3.53,3.82,12.52,12.52,0,0,1,1.24,5.67,11.81,11.81,0,0,1-1.23,5.49,9.14,9.14,0,0,1-3.53,3.76A10.47,10.47,0,0,1,136.28,101.07Zm0-5a2.78,2.78,0,0,0,2.18-.87,5,5,0,0,0,1.1-2.22,12,12,0,0,0,.32-2.75,12.14,12.14,0,0,0-.3-2.7,4.68,4.68,0,0,0-1.08-2.17,3.31,3.31,0,0,0-4.41,0A4.72,4.72,0,0,0,133,87.48a11.26,11.26,0,0,0-.33,2.75,11.86,11.86,0,0,0,.31,2.71,4.87,4.87,0,0,0,1.1,2.24A2.79,2.79,0,0,0,136.3,96.07Z"/><path d="M151.14,100.67V80h6.56v5.3a9.79,9.79,0,0,1,1.39-2.91,6.65,6.65,0,0,1,2.25-2,6.21,6.21,0,0,1,3.1-.75h.39a.52.52,0,0,1,.21.05v6.46l-.25-.06-.31,0a11.2,11.2,0,0,0-3.23.06,4.81,4.81,0,0,0-2,.84,3.08,3.08,0,0,0-1,1.38,5,5,0,0,0-.29,1.74v10.62Z"/><path d="M168.92,100.67V80h6.68v2.9a8.51,8.51,0,0,1,2.62-2.33,7.87,7.87,0,0,1,4-1,6.71,6.71,0,0,1,2.12.37,7.44,7.44,0,0,1,2,1.1A6.69,6.69,0,0,1,188,82.87a8.71,8.71,0,0,1,2.62-2.32,7,7,0,0,1,3.62-1,7.38,7.38,0,0,1,2.36.41,6.57,6.57,0,0,1,2.19,1.28,6.4,6.4,0,0,1,1.6,2.27A8.72,8.72,0,0,1,201,87v13.7H194.2V87.87a2.77,2.77,0,0,0-.43-1.59,2.71,2.71,0,0,0-1.09-.9,3.45,3.45,0,0,0-1.38-.29,3.64,3.64,0,0,0-1.36.28,2.79,2.79,0,0,0-1.14.86,2.3,2.3,0,0,0-.46,1.48v13h-6.8V87.61a2.27,2.27,0,0,0-.43-1.38,2.9,2.9,0,0,0-1.08-.85,3.38,3.38,0,0,0-1.35-.29,3.55,3.55,0,0,0-1.37.29,2.9,2.9,0,0,0-1.14.87,2.33,2.33,0,0,0-.45,1.46v13Z"/><path d="M212.22,91.89a5.21,5.21,0,0,0,.44,2.39,3.23,3.23,0,0,0,1.3,1.47,3.69,3.69,0,0,0,2,.5,4.67,4.67,0,0,0,2.27-.53,3.16,3.16,0,0,0,1.45-1.85h6.08a7.31,7.31,0,0,1-1.79,3.87,9.6,9.6,0,0,1-3.53,2.47,11,11,0,0,1-4.3.86,11.38,11.38,0,0,1-5.55-1.3,9.11,9.11,0,0,1-3.72-3.66,11.05,11.05,0,0,1-1.33-5.54,12.27,12.27,0,0,1,1.22-5.51,9.75,9.75,0,0,1,3.52-4,10,10,0,0,1,5.54-1.49A10.24,10.24,0,0,1,221.26,81a8.69,8.69,0,0,1,3.31,3.76,12.88,12.88,0,0,1,1.11,5.47v1.7Zm0-3.92h7.16a4.45,4.45,0,0,0-.4-1.87,3.26,3.26,0,0,0-1.2-1.35,3.73,3.73,0,0,0-2-.5,3.34,3.34,0,0,0-1.88.53,3.79,3.79,0,0,0-1.26,1.38A3.49,3.49,0,0,0,212.2,88Z"/><path d="M230.48,100.67V80H237v5.3a9.79,9.79,0,0,1,1.39-2.91,6.65,6.65,0,0,1,2.25-2,6.21,6.21,0,0,1,3.1-.75h.39a.52.52,0,0,1,.21.05v6.46l-.25-.06-.31,0a11.2,11.2,0,0,0-3.23.06,4.81,4.81,0,0,0-2,.84,3.08,3.08,0,0,0-1,1.38,5,5,0,0,0-.29,1.74v10.62Z"/></g></g></g></g></svg>