<?xml version="1.0" ?><svg viewBox="0 0 64 64" xmlns="http://www.w3.org/2000/svg"><title/><g id="Search"><path d="M59.6582,48.3442,49.3965,38.082A25.0439,25.0439,0,1,0,38.0819,49.3959L48.3438,59.6582a8,8,0,0,0,11.3144-11.314ZM4.001,27.0015a22.9935,22.9935,0,1,1,23,23A23.0258,23.0258,0,0,1,4.001,27.0015ZM58.2441,58.2441a6.0084,6.0084,0,0,1-8.4863,0L39.917,48.4033c.0855-.0515.1663-.1093.251-.1617.1717-.1062.3392-.2172.5079-.3273q.4744-.31.9335-.6385c.1673-.12.3338-.2412.4979-.3655.3123-.2364.6165-.4818.9167-.7323.1378-.115.2785-.2264.4137-.3443.4259-.3712.8419-.7528,1.2411-1.1519l.0013-.0013c.3995-.3994.7816-.8159,1.1532-1.242.1182-.1356.23-.2767.3453-.4149.2495-.2991.4941-.6022.73-.9132.1258-.1659.248-.3343.37-.5036q.3258-.4533.6311-.9224c.1129-.1729.2267-.3447.3355-.5206.0515-.0832.1082-.1625.1587-.2463l9.8408,9.8408a6.0066,6.0066,0,0,1,0,8.4858Z"/></g></svg>